<?xml version="1.0" encoding="UTF-8"?>
<svg xmlns="http://www.w3.org/2000/svg"
     width="1024"
     height="1024"
     viewBox="0 0 1024 1024"
     role="img"
     aria-labelledby="title desc">
    <title id="title">NOTE-PON app icon</title>
    <desc id="desc">Dark rounded square icon with a green border and a white note document symbol.</desc>

    <defs>
        <linearGradient id="greenBorder" x1="0" y1="0" x2="1" y2="1">
            <stop offset="0%" stop-color="#35f2a7"/>
            <stop offset="55%" stop-color="#10c979"/>
            <stop offset="100%" stop-color="#07a65e"/>
        </linearGradient>

        <linearGradient id="darkFace" x1="0" y1="0" x2="0" y2="1">
            <stop offset="0%" stop-color="#2c2f33"/>
            <stop offset="100%" stop-color="#15171a"/>
        </linearGradient>

        <linearGradient id="paperWhite" x1="0" y1="0" x2="1" y2="1">
            <stop offset="0%" stop-color="#ffffff"/>
            <stop offset="100%" stop-color="#f0f0f0"/>
        </linearGradient>

        <filter id="softShadow" x="-20%" y="-20%" width="140%" height="140%">
            <feDropShadow dx="0" dy="18" stdDeviation="18"
                          flood-color="#000000" flood-opacity="0.34"/>
        </filter>

        <filter id="innerGlow" x="-20%" y="-20%" width="140%" height="140%">
            <feGaussianBlur in="SourceGraphic" stdDeviation="10" result="blur"/>
            <feComposite in="blur" in2="SourceGraphic" operator="out" result="glow"/>
            <feColorMatrix in="glow" type="matrix"
                values="0 0 0 0 1
                        0 0 0 0 1
                        0 0 0 0 1
                        0 0 0 0.08 0"/>
            <feBlend in="SourceGraphic" mode="screen"/>
        </filter>
    </defs>

    <!-- Green outer frame -->
    <rect x="18" y="18" width="988" height="988" rx="170"
          fill="url(#greenBorder)"/>

    <!-- Dark inner rim -->
    <rect x="34" y="34" width="956" height="956" rx="154"
          fill="#0b0d0f"/>

    <!-- Main app face -->
    <rect x="48" y="48" width="928" height="928" rx="142"
          fill="url(#darkFace)"
          stroke="#3b3e42"
          stroke-width="3"/>

    <!-- Subtle top highlight -->
    <path d="M190 58 H834
             C905 58 966 119 966 190
             V235
             C934 172 874 132 806 132
             H218
             C150 132 90 172 58 235
             V190
             C58 119 119 58 190 58 Z"
          fill="#ffffff"
          opacity="0.035"/>

    <!-- Document symbol -->
    <g filter="url(#softShadow)">
        <!-- Main page -->
        <path d="M270 236
                 H607
                 V402
                 C607 448 645 486 691 486
                 H824
                 V740
                 C824 796 778 842 722 842
                 H302
                 C246 842 200 796 200 740
                 V306
                 C200 267 231 236 270 236 Z"
              fill="url(#paperWhite)"/>

        <!-- Folded corner -->
        <path d="M625 236
                 L824 435
                 H694
                 C656 435 625 404 625 366
                 Z"
              fill="#ffffff"/>

        <!-- Fold shadow -->
        <path d="M607 238
                 V402
                 C607 448 645 486 691 486
                 H824
                 V466
                 H700
                 C659 466 626 433 626 392
                 V236
                 Z"
              fill="#000000"
              opacity="0.18"/>
    </g>

    <!-- Text lines -->
    <g fill="#17191c">
        <rect x="278" y="490" width="308" height="34" rx="17"/>
        <rect x="278" y="580" width="226" height="34" rx="17"/>
        <rect x="278" y="670" width="226" height="34" rx="17"/>
    </g>
</svg>
